<?xml version="1.0" encoding="us-ascii" standalone="no"?><svg xmlns="http://www.w3.org/2000/svg" xmlns:xlink="http://www.w3.org/1999/xlink" contentStyleType="text/css" height="1160.4167px" preserveAspectRatio="none" style="width:793px;height:1160px;" version="1.1" viewBox="0 0 793 1160" width="793.75px" zoomAndPan="magnify"><defs><linearGradient id="gpo3kp00yxdij0" x1="50%" x2="50%" y1="0%" y2="100%"><stop offset="0%" stop-color="#33B2E2"/><stop offset="100%" stop-color="#009FDB"/></linearGradient><linearGradient id="gpo3kp00yxdij1" x1="50%" x2="50%" y1="0%" y2="100%"><stop offset="0%" stop-color="#FFFFFF"/><stop offset="100%" stop-color="#D2D2D2"/></linearGradient></defs><g><rect fill="none" height="126.825" rx="10.4167" ry="10.4167" style="stroke:#33B2E2;stroke-width:1.0416666666666667;" width="750" x="20.8333" y="723.5331"/><rect fill="none" height="173.2666" rx="10.4167" ry="10.4167" style="stroke:#33B2E2;stroke-width:1.0416666666666667;" width="750" x="20.8333" y="864.9414"/><line style="stroke:#C2C2C2;stroke-width:1.0416666666666667;stroke-dasharray:5.0,5.0;" x1="73.9583" x2="73.9583" y1="105.8167" y2="1055.9163"/><line style="stroke:#C2C2C2;stroke-width:1.0416666666666667;stroke-dasharray:5.0,5.0;" x1="530.2083" x2="530.2083" y1="105.8167" y2="1055.9163"/><line style="stroke:#C2C2C2;stroke-width:1.0416666666666667;stroke-dasharray:5.0,5.0;" x1="689.5833" x2="689.5833" y1="105.8167" y2="1055.9163"/><text fill="#009FDB" font-family="Verdana" font-size="12.5" lengthAdjust="spacing" textLength="63.5417" x="39.5833" y="94.8588">Customer</text><ellipse cx="74.4792" cy="19.7917" fill="url(#gpo3kp00yxdij0)" rx="8.3333" ry="8.3333" style="stroke:#33B2E2;stroke-width:1.0416666666666667;"/><path d="M74.4792,28.125 L74.4792,56.25 M60.9375,36.4583 L88.0208,36.4583 M74.4792,56.25 L60.9375,71.875 M74.4792,56.25 L88.0208,71.875 " fill="none" style="stroke:#33B2E2;stroke-width:1.0416666666666667;"/><text fill="#009FDB" font-family="Verdana" font-size="12.5" lengthAdjust="spacing" textLength="63.5417" x="39.5833" y="1075.7751">Customer</text><ellipse cx="74.4792" cy="1096.108" fill="url(#gpo3kp00yxdij0)" rx="8.3333" ry="8.3333" style="stroke:#33B2E2;stroke-width:1.0416666666666667;"/><path d="M74.4792,1104.4413 L74.4792,1132.5663 M60.9375,1112.7747 L88.0208,1112.7747 M74.4792,1132.5663 L60.9375,1148.1913 M74.4792,1132.5663 L88.0208,1148.1913 " fill="none" style="stroke:#33B2E2;stroke-width:1.0416666666666667;"/><rect fill="url(#gpo3kp00yxdij0)" height="46.4417" rx="10.4167" ry="10.4167" style="stroke:#33B2E2;stroke-width:1.0416666666666667;" width="94.7917" x="483.3333" y="58.3333"/><text fill="#FFFFFF" font-family="Verdana" font-size="12.5" lengthAdjust="spacing" textLength="63.5417" x="498.9583" y="86.5255">Terraform</text><rect fill="url(#gpo3kp00yxdij0)" height="46.4417" rx="10.4167" ry="10.4167" style="stroke:#33B2E2;stroke-width:1.0416666666666667;" width="94.7917" x="483.3333" y="1054.8747"/><text fill="#FFFFFF" font-family="Verdana" font-size="12.5" lengthAdjust="spacing" textLength="63.5417" x="498.9583" y="1083.0668">Terraform</text><rect fill="url(#gpo3kp00yxdij0)" height="46.4417" rx="10.4167" ry="10.4167" style="stroke:#33B2E2;stroke-width:1.0416666666666667;" width="73.9583" x="655.2083" y="54.1667"/><rect fill="url(#gpo3kp00yxdij0)" height="46.4417" rx="10.4167" ry="10.4167" style="stroke:#33B2E2;stroke-width:1.0416666666666667;" width="73.9583" x="651.0417" y="58.3333"/><text fill="#FFFFFF" font-family="Verdana" font-size="12.5" lengthAdjust="spacing" textLength="42.7083" x="666.6667" y="86.5255">OneFS</text><rect fill="url(#gpo3kp00yxdij0)" height="46.4417" rx="10.4167" ry="10.4167" style="stroke:#33B2E2;stroke-width:1.0416666666666667;" width="73.9583" x="655.2083" y="1054.8747"/><rect fill="url(#gpo3kp00yxdij0)" height="46.4417" rx="10.4167" ry="10.4167" style="stroke:#33B2E2;stroke-width:1.0416666666666667;" width="73.9583" x="651.0417" y="1059.0413"/><text fill="#FFFFFF" font-family="Verdana" font-size="12.5" lengthAdjust="spacing" textLength="42.7083" x="666.6667" y="1087.2335">OneFS</text><rect fill="url(#gpo3kp00yxdij1)" height="3.125" rx="10.4167" ry="10.4167" style="stroke:url(#gpo3kp00yxdij1);stroke-width:1.0416666666666667;" width="770.8333" x="10.4167" y="145.7041"/><line style="stroke:#959595;stroke-width:1.0416666666666667;" x1="10.4167" x2="781.25" y1="145.7041" y2="145.7041"/><line style="stroke:#959595;stroke-width:1.0416666666666667;" x1="10.4167" x2="781.25" y1="148.8291" y2="148.8291"/><rect fill="url(#gpo3kp00yxdij1)" height="40.1917" rx="10.4167" ry="10.4167" style="stroke:#959595;stroke-width:2.0833333333333335;" width="217.7083" x="286.9792" y="126.65"/><text fill="#5A5A5A" font-family="Verdana" font-size="12.5" font-weight="bold" lengthAdjust="spacing" textLength="182.2917" x="301.5625" y="151.7171">Deploy Terraform Modules</text><ellipse cx="530.2083" cy="214.5854" fill="none" rx="4.1667" ry="4.1667" style="stroke:#009FDB;stroke-width:1.5625;"/><polygon fill="#009FDB" points="512.5,211.2,522.9167,215.3666,512.5,219.5333,516.6667,215.3666" style="stroke:#009FDB;stroke-width:1.0416666666666667;"/><line style="stroke:#009FDB;stroke-width:3.125;stroke-dasharray:2.0,2.0;" x1="74.4792" x2="518.75" y1="215.3666" y2="215.3666"/><text fill="#5A5A5A" font-family="Verdana" font-size="12.5" font-weight="bold" lengthAdjust="spacing" textLength="70.8333" x="90.1042" y="202.3254">[Optional]</text><text fill="#5A5A5A" font-family="Verdana" font-size="12.5" lengthAdjust="spacing" textLength="192.7083" x="165.1042" y="202.3254">Deploy IAM resources Module</text><ellipse cx="73.9583" cy="261.027" fill="none" rx="4.1667" ry="4.1667" style="stroke:#009FDB;stroke-width:1.5625;"/><polygon fill="#009FDB" points="91.6667,257.6416,81.25,261.8083,91.6667,265.9749,87.5,261.8083" style="stroke:#009FDB;stroke-width:1.0416666666666667;"/><line style="stroke:#009FDB;stroke-width:3.125;stroke-dasharray:2.0,2.0;" x1="89.5833" x2="529.6875" y1="261.8083" y2="261.8083"/><text fill="#5A5A5A" font-family="Verdana" font-size="12.5" lengthAdjust="spacing" textLength="238.5417" x="100.5208" y="248.7671">Wait for terraform apply to complete</text><ellipse cx="530.2083" cy="307.4687" fill="none" rx="4.1667" ry="4.1667" style="stroke:#009FDB;stroke-width:1.5625;"/><polygon fill="#009FDB" points="512.5,304.0833,522.9167,308.2499,512.5,312.4166,516.6667,308.2499" style="stroke:#009FDB;stroke-width:1.0416666666666667;"/><line style="stroke:#009FDB;stroke-width:3.125;" x1="74.4792" x2="518.75" y1="308.2499" y2="308.2499"/><text fill="#5A5A5A" font-family="Verdana" font-size="12.5" lengthAdjust="spacing" textLength="254.1667" x="90.1042" y="295.2087">Deploy External Security Group Module</text><ellipse cx="73.9583" cy="353.9103" fill="none" rx="4.1667" ry="4.1667" style="stroke:#009FDB;stroke-width:1.5625;"/><polygon fill="#009FDB" points="91.6667,350.5249,81.25,354.6916,91.6667,358.8582,87.5,354.6916" style="stroke:#009FDB;stroke-width:1.0416666666666667;"/><line style="stroke:#009FDB;stroke-width:3.125;" x1="89.5833" x2="529.6875" y1="354.6916" y2="354.6916"/><text fill="#5A5A5A" font-family="Verdana" font-size="12.5" lengthAdjust="spacing" textLength="238.5417" x="100.5208" y="341.6504">Wait for terraform apply to complete</text><ellipse cx="530.2083" cy="400.352" fill="none" rx="4.1667" ry="4.1667" style="stroke:#009FDB;stroke-width:1.5625;"/><polygon fill="#009FDB" points="512.5,396.9666,522.9167,401.1332,512.5,405.2999,516.6667,401.1332" style="stroke:#009FDB;stroke-width:1.0416666666666667;"/><line style="stroke:#009FDB;stroke-width:3.125;" x1="74.4792" x2="518.75" y1="401.1332" y2="401.1332"/><text fill="#5A5A5A" font-family="Verdana" font-size="12.5" lengthAdjust="spacing" textLength="252.0833" x="90.1042" y="388.092">Deploy Internal Security Group Module</text><ellipse cx="73.9583" cy="446.7936" fill="none" rx="4.1667" ry="4.1667" style="stroke:#009FDB;stroke-width:1.5625;"/><polygon fill="#009FDB" points="91.6667,443.4082,81.25,447.5749,91.6667,451.7415,87.5,447.5749" style="stroke:#009FDB;stroke-width:1.0416666666666667;"/><line style="stroke:#009FDB;stroke-width:3.125;" x1="89.5833" x2="529.6875" y1="447.5749" y2="447.5749"/><text fill="#5A5A5A" font-family="Verdana" font-size="12.5" lengthAdjust="spacing" textLength="238.5417" x="100.5208" y="434.5337">Wait for terraform apply to complete</text><ellipse cx="530.2083" cy="493.2353" fill="none" rx="4.1667" ry="4.1667" style="stroke:#009FDB;stroke-width:1.5625;"/><polygon fill="#009FDB" points="512.5,489.8499,522.9167,494.0165,512.5,498.1832,516.6667,494.0165" style="stroke:#009FDB;stroke-width:1.0416666666666667;"/><line style="stroke:#009FDB;stroke-width:3.125;" x1="74.4792" x2="518.75" y1="494.0165" y2="494.0165"/><text fill="#5A5A5A" font-family="Verdana" font-size="12.5" lengthAdjust="spacing" textLength="142.7083" x="90.1042" y="480.9753">Deploy OneFS Module</text><ellipse cx="73.9583" cy="539.6769" fill="none" rx="4.1667" ry="4.1667" style="stroke:#009FDB;stroke-width:1.5625;"/><polygon fill="#009FDB" points="91.6667,536.2915,81.25,540.4582,91.6667,544.6248,87.5,540.4582" style="stroke:#009FDB;stroke-width:1.0416666666666667;"/><line style="stroke:#009FDB;stroke-width:3.125;" x1="89.5833" x2="529.6875" y1="540.4582" y2="540.4582"/><text fill="#5A5A5A" font-family="Verdana" font-size="12.5" lengthAdjust="spacing" textLength="238.5417" x="100.5208" y="527.417">Wait for terraform apply to complete</text><rect fill="url(#gpo3kp00yxdij1)" height="3.125" rx="10.4167" ry="10.4167" style="stroke:url(#gpo3kp00yxdij1);stroke-width:1.0416666666666667;" width="770.8333" x="10.4167" y="578.2623"/><line style="stroke:#959595;stroke-width:1.0416666666666667;" x1="10.4167" x2="781.25" y1="578.2623" y2="578.2623"/><line style="stroke:#959595;stroke-width:1.0416666666666667;" x1="10.4167" x2="781.25" y1="581.3873" y2="581.3873"/><rect fill="url(#gpo3kp00yxdij1)" height="40.1917" rx="10.4167" ry="10.4167" style="stroke:#959595;stroke-width:2.0833333333333335;" width="160.4167" x="315.625" y="559.2082"/><text fill="#5A5A5A" font-family="Verdana" font-size="12.5" font-weight="bold" lengthAdjust="spacing" textLength="125" x="330.2083" y="584.2753">Post Deploy Steps</text><line style="stroke:#009FDB;stroke-width:3.125;" x1="74.4792" x2="118.2292" y1="647.9248" y2="647.9248"/><line style="stroke:#009FDB;stroke-width:3.125;" x1="118.2292" x2="118.2292" y1="647.9248" y2="661.4665"/><line style="stroke:#009FDB;stroke-width:3.125;" x1="75.5208" x2="118.2292" y1="661.4665" y2="661.4665"/><polygon fill="#009FDB" points="85.9375,657.2998,75.5208,661.4665,85.9375,665.6331,81.7708,661.4665" style="stroke:#009FDB;stroke-width:1.0416666666666667;"/><text fill="#5A5A5A" font-family="Verdana" font-size="12.5" lengthAdjust="spacing" textLength="425" x="90.1042" y="634.8836">Wait for first node to boot and get auto-registered to the cluster</text><polygon fill="#009FDB" points="677.6042,703.7415,688.0208,707.9081,677.6042,712.0748,681.7708,707.9081" style="stroke:#009FDB;stroke-width:1.0416666666666667;"/><line style="stroke:#009FDB;stroke-width:3.125;" x1="74.4792" x2="683.8542" y1="707.9081" y2="707.9081"/><text fill="#5A5A5A" font-family="Verdana" font-size="12.5" lengthAdjust="spacing" textLength="389.5833" x="90.1042" y="694.8669">SSH to the first node which is auto-registered in the cluster</text><path d="M31.25,723.5331 L293.75,723.5331 L293.75,747.0581 L283.3333,757.4748 L20.8333,757.4748 L20.8333,733.9498 A10.4167,10.4167 0 0 1 31.25,723.5331 " fill="#F2F2F2" style="stroke:#959595;stroke-width:1.0416666666666667;"/><rect fill="none" height="126.825" rx="10.4167" ry="10.4167" style="stroke:#33B2E2;stroke-width:1.0416666666666667;" width="750" x="20.8333" y="723.5331"/><text fill="#0568AE" font-family="Verdana" font-size="12.5" font-weight="bold" lengthAdjust="spacing" textLength="209.375" x="44.7917" y="745.4753">Cluster Network Configuration</text><polygon fill="#009FDB" points="677.6042,791.4164,688.0208,795.5831,677.6042,799.7498,681.7708,795.5831" style="stroke:#009FDB;stroke-width:1.0416666666666667;"/><line style="stroke:#009FDB;stroke-width:3.125;" x1="74.4792" x2="683.8542" y1="795.5831" y2="795.5831"/><text fill="#5A5A5A" font-family="Verdana" font-size="12.5" lengthAdjust="spacing" textLength="178.125" x="90.1042" y="782.5419">Configure SmartConnect IP</text><polygon fill="#009FDB" points="677.6042,837.8581,688.0208,842.0247,677.6042,846.1914,681.7708,842.0247" style="stroke:#009FDB;stroke-width:1.0416666666666667;"/><line style="stroke:#009FDB;stroke-width:3.125;" x1="74.4792" x2="683.8542" y1="842.0247" y2="842.0247"/><text fill="#5A5A5A" font-family="Verdana" font-size="12.5" lengthAdjust="spacing" textLength="338.5417" x="90.1042" y="828.9836">Configure internal network interface's IP addresses</text><path d="M31.25,864.9414 L347.9167,864.9414 L347.9167,888.4664 L337.5,898.8831 L20.8333,898.8831 L20.8333,875.3581 A10.4167,10.4167 0 0 1 31.25,864.9414 " fill="#F2F2F2" style="stroke:#959595;stroke-width:1.0416666666666667;"/><rect fill="none" height="173.2666" rx="10.4167" ry="10.4167" style="stroke:#33B2E2;stroke-width:1.0416666666666667;" width="750" x="20.8333" y="864.9414"/><text fill="#0568AE" font-family="Verdana" font-size="12.5" font-weight="bold" lengthAdjust="spacing" textLength="263.5417" x="44.7917" y="886.8835">Repeat for the rest of the of n-1 nodes</text><polygon fill="#009FDB" points="677.6042,932.8247,688.0208,936.9914,677.6042,941.158,681.7708,936.9914" style="stroke:#009FDB;stroke-width:1.0416666666666667;"/><line style="stroke:#009FDB;stroke-width:3.125;" x1="74.4792" x2="683.8542" y1="936.9914" y2="936.9914"/><text fill="#5A5A5A" font-family="Verdana" font-size="12.5" lengthAdjust="spacing" textLength="209.375" x="90.1042" y="923.9502">Add external IP to network pool</text><polygon fill="#009FDB" points="677.6042,979.2664,688.0208,983.433,677.6042,987.5997,681.7708,983.433" style="stroke:#009FDB;stroke-width:1.0416666666666667;"/><line style="stroke:#009FDB;stroke-width:3.125;" x1="74.4792" x2="683.8542" y1="983.433" y2="983.433"/><text fill="#5A5A5A" font-family="Verdana" font-size="12.5" lengthAdjust="spacing" textLength="62.5" x="90.1042" y="970.3918">Add node</text><polygon fill="#009FDB" points="677.6042,1025.708,688.0208,1029.8747,677.6042,1034.0413,681.7708,1029.8747" style="stroke:#009FDB;stroke-width:1.0416666666666667;"/><line style="stroke:#009FDB;stroke-width:3.125;" x1="74.4792" x2="683.8542" y1="1029.8747" y2="1029.8747"/><text fill="#5A5A5A" font-family="Verdana" font-size="12.5" lengthAdjust="spacing" textLength="117.7083" x="90.1042" y="1016.8335">Wait for node join</text><!--SRC=[nPCzZzim38Pt_GfswXGKNODBW6lwbU4-K1VeK7HG9DfH8uk2HE6QVrzQ5pi-NAvJYqwoHV9vNr5KFhWGTT8zt1BZEsqENQ8Ix8Oy9KXerIlUOu-mymMxf8zAQSCIsfJCr6DIIihP6HTrOFYAAUcMKgyCUO-67OKCTm4_DagjLl0UewVZEGrko1QF6LOhDH9XiLZJEMK9LxlrzxiueBJ_SVLcjnuns-iRiPYf92E8HvGwiojdChg4RzenI0HuIj4n-YCmWQ4-UcISkHYAPovEcXz-IRKOWGPDIOwFy4aQ5Y-e_mFnRVYFulKM_uxKC0htb7b4Duonpi3Sn2Lewv9K1R8uy7P433fOw53MmhH8sBaiocY7k4mk65-6ZIVWUf8bDCtdCMl6VTWximUNdm5TU0BiQkStZtzmY_n0wG0R2gthIjB3k2g0SsicOLXEMGXDBwz7VeEy5TZUNwwO5xXn1C99iMwqsk3hB03GrigJo9WL1gjEBhzWH7sw5Zc2931GMxzb2OktzUZv9VLhQm77kHSDQTge7edydye6xalnwLPhtt-I2zNpRm00]--></g></svg>